<svg width="156" height="315" viewBox="0 0 156 315" fill="none" xmlns="http://www.w3.org/2000/svg">
<path d="M29.7067 19.3029C29.4412 18.2259 28.8931 17.4416 28.0622 16.9499C27.2422 16.4564 26.0957 16.33 24.6226 16.5705C23.6841 16.7237 22.9335 16.9639 22.3708 17.2911C21.8172 17.6055 21.4297 17.9769 21.2083 18.4051C20.987 18.8334 20.9109 19.2939 20.9802 19.7867C21.0243 20.194 21.1549 20.548 21.3721 20.8486C21.5983 21.1366 21.9183 21.3812 22.3321 21.5825C22.7441 21.7729 23.2562 21.9246 23.8684 22.0374C24.4806 22.1503 25.1983 22.2236 26.0216 22.2572L28.8676 22.3975C30.7868 22.4874 32.4592 22.7465 33.8846 23.1747C35.3101 23.6029 36.5142 24.1849 37.497 24.9207C38.478 25.6455 39.2531 26.516 39.8223 27.5322C40.4024 28.5465 40.8022 29.6912 41.0216 30.9661C41.3706 33.1721 41.1242 35.1281 40.2824 36.8339C39.4407 38.5398 38.07 39.9567 36.1704 41.0847C34.2818 42.2109 31.9189 43.0056 29.0818 43.4688C26.1683 43.9445 23.5554 43.9287 21.2431 43.4212C18.9418 42.9119 17.0449 41.8605 15.5524 40.2669C14.069 38.6606 13.0929 36.4562 12.624 33.6536L21.2663 32.2425C21.4884 33.2593 21.8856 34.0795 22.4579 34.703C23.0302 35.3265 23.7605 35.7506 24.6486 35.9753C25.5476 36.1982 26.5754 36.2153 27.7321 36.0264C28.7033 35.8678 29.4966 35.615 30.1122 35.2681C30.7277 34.9211 31.1698 34.5072 31.4386 34.0264C31.7074 33.5456 31.8027 33.0315 31.7245 32.4841C31.6299 31.9731 31.3877 31.5533 30.998 31.2248C30.6174 30.8837 30.0366 30.62 29.2556 30.4338C28.4728 30.2368 27.4372 30.1034 26.1487 30.0337L22.692 29.8587C19.6188 29.6995 17.1027 29.0069 15.1436 27.7808C13.1937 26.5419 12.0104 24.6122 11.5937 21.9915C11.2353 19.8655 11.499 17.9123 12.3846 16.1321C13.2793 14.3392 14.6739 12.8287 16.5684 11.6008C18.4737 10.371 20.7522 9.53965 23.4038 9.10669C26.11 8.66482 28.5246 8.73549 30.6476 9.31869C32.7705 9.9019 34.5012 10.9301 35.8396 12.4032C37.1872 13.8636 38.0455 15.6895 38.4145 17.8811L29.7067 19.3029Z" fill="black"/>
<path d="M73.1747 17.1769L63.8382 17.747C63.7248 16.9785 63.5055 16.2885 63.1801 15.677C62.8658 15.0648 62.4466 14.5476 61.9223 14.1255C61.4084 13.6916 60.7964 13.3745 60.0863 13.1742C59.3756 12.9628 58.5788 12.8841 57.6959 12.938C56.1509 13.0323 54.866 13.4874 53.8413 14.3032C52.8277 15.1183 52.0878 16.2435 51.6216 17.6788C51.1664 19.1133 50.9988 20.8128 51.1187 22.7772C51.2454 24.852 51.6274 26.5733 52.2648 27.9412C52.9125 29.2974 53.7877 30.2962 54.8902 30.9379C55.9922 31.5684 57.288 31.8382 58.7779 31.7473C59.6277 31.6954 60.3827 31.5441 61.0431 31.2933C61.7028 31.0314 62.2685 30.6812 62.7402 30.2426C63.2119 29.8039 63.5847 29.2882 63.8587 28.6955C64.143 28.091 64.3181 27.4212 64.384 26.6861L73.7245 26.1823C73.7017 27.6237 73.3882 29.1106 72.7839 30.6429C72.1789 32.1641 71.2748 33.5929 70.0714 34.9292C68.8784 36.2537 67.3671 37.354 65.5375 38.23C63.7079 39.1061 61.5515 39.6199 59.0684 39.7715C55.9563 39.9615 53.1234 39.4643 50.5699 38.2799C48.0273 37.0948 45.9595 35.2494 44.3665 32.7435C42.7845 30.237 41.8789 27.1076 41.6498 23.3554C41.4194 19.5811 41.9537 16.3583 43.2528 13.6869C44.5512 11.0045 46.396 8.92568 48.7872 7.45043C51.1777 5.96414 53.8959 5.128 56.9418 4.94202C59.0828 4.8113 61.0706 4.98347 62.9051 5.45854C64.7397 5.93361 66.3701 6.69254 67.7962 7.73533C69.2217 8.76708 70.3982 10.0743 71.3256 11.6571C72.253 13.2399 72.8694 15.0798 73.1747 17.1769Z" fill="black"/>
<path d="M98.4347 16.982C98.3249 16.3887 98.1282 15.8624 97.8446 15.403C97.5616 14.9326 97.1972 14.5296 96.7514 14.1938C96.3173 13.8476 95.8012 13.5797 95.203 13.3902C94.6165 13.1902 93.9645 13.0696 93.247 13.0282C91.7016 12.9392 90.3613 13.2329 89.2258 13.9095C88.1015 14.5867 87.2122 15.6042 86.5581 16.9619C85.9149 18.3203 85.5367 19.9818 85.4235 21.9466C85.309 23.9335 85.4814 25.649 85.9409 27.093C86.4003 28.5371 87.1437 29.6653 88.1712 30.4776C89.1986 31.2899 90.5071 31.7419 92.0966 31.8335C93.4984 31.9143 94.6747 31.7772 95.6255 31.4223C96.5873 31.0679 97.3216 30.5288 97.8285 29.805C98.3353 29.0811 98.6064 28.3768 98.6649 27.3613L92.5077 27.0064L92.8856 20.4497L107.92 21.3163L107.649 26.0186C107.47 29.1093 106.661 31.7151 105.221 33.8359C103.793 35.9464 101.897 37.5205 99.5333 38.5582C97.1816 39.5855 94.5267 40.0139 91.5684 39.8434C88.268 39.6532 85.4109 38.7852 82.997 37.2396C80.5832 35.6939 78.7501 33.5837 77.4978 30.909C76.2565 28.2348 75.7389 25.1096 75.9451 21.5332C76.1067 18.7295 76.6748 16.2704 77.6495 14.1559C78.6352 12.042 79.9326 10.2839 81.5418 8.88158C83.1516 7.46819 84.9774 6.43825 87.0192 5.79178C89.0616 5.13427 91.2253 4.87137 93.5102 5.00307C95.5192 5.11887 97.3681 5.51339 99.0569 6.18663C100.757 6.84947 102.24 7.74338 103.504 8.86836C104.78 9.98294 105.785 11.2757 106.52 12.7467C107.255 14.2178 107.661 15.8083 107.74 17.5183L98.4347 16.982Z" fill="black"/>
<path d="M123.108 9.00845L126.08 33.7716L126.341 33.8149L137.115 11.321L147.391 13.0176L130.797 44.7033L118.361 42.6501L112.832 7.31187L123.108 9.00845Z" fill="black"/>
</svg>
