<svg width="156" height="315" viewBox="0 0 156 315" fill="none" xmlns="http://www.w3.org/2000/svg">
<path d="M30.7067 19.3029C30.4412 18.2259 29.8931 17.4416 29.0622 16.9499C28.2422 16.4564 27.0957 16.33 25.6226 16.5705C24.6841 16.7237 23.9335 16.9639 23.3708 17.2911C22.8172 17.6055 22.4297 17.9769 22.2083 18.4051C21.987 18.8334 21.9109 19.2939 21.9802 19.7867C22.0243 20.194 22.1549 20.548 22.3721 20.8486C22.5983 21.1366 22.9183 21.3812 23.3321 21.5825C23.7441 21.7729 24.2562 21.9246 24.8684 22.0374C25.4806 22.1503 26.1983 22.2236 27.0216 22.2572L29.8676 22.3975C31.7868 22.4874 33.4592 22.7465 34.8846 23.1747C36.3101 23.6029 37.5142 24.1849 38.497 24.9207C39.478 25.6455 40.2531 26.516 40.8223 27.5322C41.4024 28.5465 41.8022 29.6912 42.0216 30.9661C42.3706 33.1721 42.1242 35.1281 41.2824 36.8339C40.4407 38.5398 39.07 39.9567 37.1704 41.0847C35.2818 42.2109 32.9189 43.0056 30.0818 43.4688C27.1683 43.9445 24.5554 43.9287 22.2431 43.4212C19.9418 42.9119 18.0449 41.8605 16.5524 40.2669C15.069 38.6606 14.0929 36.4562 13.624 33.6536L22.2663 32.2425C22.4884 33.2593 22.8856 34.0795 23.4579 34.703C24.0302 35.3265 24.7605 35.7506 25.6486 35.9753C26.5476 36.1982 27.5754 36.2153 28.7321 36.0264C29.7033 35.8678 30.4966 35.615 31.1122 35.2681C31.7277 34.9211 32.1698 34.5072 32.4386 34.0264C32.7074 33.5456 32.8027 33.0315 32.7245 32.4841C32.6299 31.9731 32.3877 31.5533 31.998 31.2248C31.6174 30.8837 31.0366 30.62 30.2556 30.4338C29.4728 30.2368 28.4372 30.1034 27.1487 30.0337L23.692 29.8587C20.6188 29.6995 18.1027 29.0069 16.1436 27.7808C14.1937 26.5419 13.0104 24.6122 12.5937 21.9915C12.2353 19.8655 12.499 17.9123 13.3846 16.1321C14.2793 14.3392 15.6739 12.8287 17.5684 11.6008C19.4737 10.371 21.7522 9.53965 24.4038 9.10669C27.11 8.66482 29.5246 8.73549 31.6476 9.31869C33.7705 9.9019 35.5012 10.9301 36.8396 12.4032C38.1872 13.8636 39.0455 15.6895 39.4145 17.8811L30.7067 19.3029Z" fill="black"/>
<path d="M111.107 19.125L101.771 18.5507C101.752 17.7741 101.619 17.0625 101.371 16.4158C101.133 15.7698 100.78 15.2053 100.312 14.7223C99.8546 14.2289 99.2859 13.8394 98.6056 13.5539C97.926 13.2573 97.1447 13.0818 96.2619 13.0275C94.7169 12.9325 93.3861 13.2272 92.2695 13.9118C91.1639 14.597 90.2921 15.6234 89.6541 16.991C89.0271 18.3593 88.6532 20.0256 88.5323 21.9899C88.4047 24.0646 88.5737 25.8197 89.0392 27.2552C89.5165 28.6803 90.2631 29.7786 91.2791 30.5501C92.2957 31.3105 93.549 31.7365 95.0388 31.8282C95.8885 31.8805 96.6564 31.8225 97.3425 31.6542C98.0293 31.4749 98.6335 31.1964 99.1552 30.8186C99.677 30.4408 100.11 29.9745 100.454 29.4197C100.81 28.8545 101.066 28.2111 101.221 27.4895L110.553 28.1301C110.355 29.558 109.862 30.9954 109.075 32.4424C108.289 33.8784 107.217 35.1861 105.859 36.3654C104.513 37.5344 102.879 38.4419 100.956 39.0879C99.0332 39.7339 96.8303 39.9806 94.3472 39.8278C91.2352 39.6364 88.4843 38.797 86.0944 37.3096C83.7156 35.8229 81.8887 33.7387 80.6136 31.057C79.3495 28.3761 78.8329 25.1595 79.0638 21.4074C79.2959 17.6332 80.2198 14.4998 81.8354 12.007C83.4517 9.50329 85.5365 7.66531 88.09 6.49311C90.6441 5.30987 93.4441 4.81195 96.4899 4.99933C98.6308 5.13104 100.583 5.54467 102.346 6.24022C104.108 6.93578 105.634 7.88813 106.922 9.09727C108.211 10.2954 109.219 11.7365 109.946 13.4207C110.673 15.1049 111.06 17.0064 111.107 19.125Z" fill="black"/>
<path d="M65.6947 17.0943C65.5118 16.5193 65.251 16.0216 64.9123 15.6013C64.5729 15.1699 64.1611 14.8154 63.6769 14.5378C63.203 14.2484 62.6574 14.0471 62.0403 13.9336C61.4334 13.8084 60.7714 13.77 60.0544 13.8185C58.51 13.9228 57.2167 14.3815 56.1746 15.1944C55.1435 16.0065 54.388 17.127 53.9083 18.5557C53.4397 19.9837 53.2717 21.6794 53.4044 23.643C53.5386 25.6287 53.9236 27.3092 54.5596 28.6847C55.1955 30.0602 56.0739 31.0868 57.1946 31.7647C58.3154 32.4425 59.67 32.7277 61.2585 32.6204C62.6595 32.5257 63.8095 32.243 64.7085 31.7722C65.6186 31.3007 66.28 30.6742 66.6926 29.8927C67.1052 29.1113 67.2863 28.3788 67.2178 27.3639L61.0644 27.7797L60.6215 21.2271L75.6462 20.2117L75.9638 24.9111C76.1725 27.9999 75.6947 30.6862 74.5303 32.9702C73.3762 35.2424 71.6914 37.0406 69.4759 38.365C67.2707 39.6776 64.6899 40.4338 61.7335 40.6336C58.4351 40.8565 55.4921 40.3517 52.9043 39.1192C50.3166 37.8867 48.2346 36.0216 46.6584 33.5239C45.0933 31.0255 44.19 27.9892 43.9484 24.415C43.7591 21.613 44.016 19.1023 44.7193 16.8827C45.4337 14.6624 46.5017 12.7562 47.9234 11.1641C49.3443 9.561 51.0274 8.31138 52.9727 7.41529C54.9171 6.50816 57.0311 5.97745 59.3146 5.82313C61.3223 5.68746 63.206 5.84829 64.9657 6.30563C66.7356 6.75119 68.3179 7.45323 69.7125 8.41175C71.1173 9.3585 72.276 10.5158 73.1885 11.8837C74.101 13.2516 74.7029 14.779 74.9942 16.4659L65.6947 17.0943Z" fill="black"/>
<path d="M122.782 9.08875L126.205 33.7936L126.467 33.832L136.829 11.1453L147.134 12.6541L131.121 44.6373L118.649 42.8114L112.476 7.57996L122.782 9.08875Z" fill="black"/>
</svg>
